<svg xmlns="http://www.w3.org/2000/svg" width="133mm" height="42mm" viewBox="0 0 133 42"><g font-weight="400" letter-spacing="0" word-spacing="0"><g aria-label="manbit" style="line-height:1.25;-inkscape-font-specification:'Arial Rounded MT Bold, '" font-size="32.569" font-family="Arial Rounded MT Bold" fill="#fff" stroke-width="24.426"><path d="M27.899 22.836v5.773q0 1.368-.62 2.051-.62.684-1.638.684-.986 0-1.606-.684-.605-.683-.605-2.051V21.69q0-1.638-.111-2.544-.111-.907-.604-1.479-.493-.588-1.559-.588-2.13 0-2.815 1.463-.668 1.463-.668 4.198v5.868q0 1.352-.62 2.051-.604.684-1.606.684-.986 0-1.622-.684-.62-.7-.62-2.051v-12.42q0-1.224.556-1.86.573-.637 1.495-.637.89 0 1.48.605.604.588.604 1.638v.413q1.129-1.352 2.417-1.988 1.288-.636 2.862-.636 1.638 0 2.815.652t1.94 1.972q1.097-1.336 2.354-1.972 1.256-.652 2.783-.652 1.78 0 3.069.7 1.288.7 1.924 2.004.557 1.176.557 3.705v8.476q0 1.368-.62 2.051-.62.684-1.639.684-.986 0-1.622-.684-.62-.7-.62-2.051v-7.3q0-1.399-.127-2.242-.111-.842-.636-1.415-.525-.572-1.59-.572-.86 0-1.638.508-.764.51-1.193 1.368-.477 1.097-.477 3.88zM53.248 28.895q-1.575 1.225-3.054 1.845-1.463.604-3.292.604-1.67 0-2.942-.652-1.256-.668-1.94-1.797-.683-1.129-.683-2.449 0-1.78 1.129-3.037t3.1-1.686q.414-.095 2.052-.43 1.638-.333 2.799-.604 1.177-.286 2.544-.683-.08-1.718-.7-2.513-.604-.811-2.528-.811-1.654 0-2.497.461-.827.461-1.43 1.384-.59.922-.844 1.224-.238.286-1.05.286-.73 0-1.271-.46-.525-.478-.525-1.21 0-1.144.81-2.226.812-1.081 2.53-1.78 1.717-.7 4.277-.7 2.863 0 4.5.683 1.639.668 2.306 2.131.684 1.463.684 3.88 0 1.527-.016 2.593 0 1.065-.016 2.37 0 1.224.398 2.56.413 1.32.413 1.701 0 .668-.636 1.225-.62.54-1.415.54-.668 0-1.32-.62-.652-.636-1.383-1.829zm-.287-6.281q-.954.35-2.783.747-1.813.382-2.512.573-.7.175-1.336.715-.636.525-.636 1.48 0 .985.747 1.685.748.684 1.956.684 1.288 0 2.37-.557 1.097-.572 1.606-1.463.588-.986.588-3.244zM65.556 16.094v.524q1.145-1.51 2.497-2.21 1.368-.716 3.133-.716 1.717 0 3.069.748 1.352.747 2.02 2.115.429.795.556 1.717.127.923.127 2.354v8.078q0 1.304-.604 1.972-.588.668-1.542.668-.97 0-1.575-.684-.604-.683-.604-1.956V21.47q0-2.147-.604-3.276-.589-1.145-2.37-1.145-1.16 0-2.115.7-.954.683-1.4 1.892-.317.97-.317 3.626v5.438q0 1.32-.62 1.988-.605.652-1.575.652-.938 0-1.543-.684-.604-.683-.604-1.956V16.157q0-1.24.54-1.844.542-.62 1.48-.62.572 0 1.033.27.462.27.732.81.286.541.286 1.32zM85.275 9.717v6.631q1.225-1.272 2.497-1.94 1.272-.684 3.149-.684 2.163 0 3.785 1.034 1.638 1.018 2.528 2.974.907 1.94.907 4.611 0 1.972-.51 3.626-.492 1.638-1.446 2.847-.955 1.208-2.322 1.876-1.352.652-2.99.652-1.002 0-1.892-.238-.875-.239-1.495-.62-.62-.398-1.066-.812-.429-.413-1.145-1.24v.43q0 1.224-.588 1.86-.588.62-1.495.62-.922 0-1.479-.62-.54-.636-.54-1.86V9.906q0-1.32.524-1.987.541-.684 1.495-.684 1.002 0 1.543.652.54.636.54 1.829zm.207 12.897q0 2.592 1.177 3.991 1.193 1.384 3.117 1.384 1.638 0 2.815-1.416 1.192-1.43 1.192-4.087 0-1.717-.493-2.957-.493-1.24-1.4-1.909-.906-.684-2.114-.684-1.24 0-2.21.684-.97.668-1.527 1.956-.557 1.272-.557 3.038zM105.965 16.157v12.547q0 1.304-.62 1.972-.62.668-1.575.668-.954 0-1.558-.684-.589-.683-.589-1.956v-12.42q0-1.288.589-1.94.604-.652 1.558-.652.954 0 1.574.652.62.652.62 1.813zm-2.147-4.484q-.907 0-1.559-.557-.636-.556-.636-1.574 0-.923.652-1.511.668-.604 1.543-.604.843 0 1.495.54.652.541.652 1.575 0 1.002-.636 1.574-.637.557-1.511.557zM110.704 14.074h.477v-2.608q0-1.05.047-1.638.064-.604.319-1.034.254-.445.731-.715.477-.287 1.065-.287.827 0 1.495.62.446.414.557 1.018.127.589.127 1.686v2.958h1.59q.923 0 1.4.445.493.43.493 1.113 0 .875-.7 1.225-.684.35-1.972.35h-.81v7.983q0 1.018.063 1.574.08.54.381.89.318.335 1.018.335.382 0 1.034-.127.652-.144 1.018-.144.524 0 .938.43.43.413.43 1.033 0 1.05-1.146 1.607-1.145.556-3.292.556-2.035 0-3.085-.684-1.05-.683-1.383-1.892-.318-1.209-.318-3.228v-8.333h-.573q-.938 0-1.431-.445-.493-.446-.493-1.13 0-.683.509-1.113.525-.445 1.51-.445z" style="-inkscape-font-specification:'Arial Rounded MT Bold, '"/></g><text style="line-height:1.25" x="27.97" y="71.348" font-size=".353" font-family="sans-serif" fill="#fff" stroke-width=".265" transform="translate(0 -255)"><tspan x="27.97" y="71.348">:</tspan></text><g style="line-height:1.25;-inkscape-font-specification:'Arial Rounded MT Bold, '"><path d="M8.015 32.132q-.985 0-1.701-.637-.716-.636-.716-1.78 0-.97.684-1.67t1.686-.7q1.002 0 1.701.7.716.683.716 1.67 0 1.128-.716 1.78-.7.637-1.654.637zM5.598 16.849q0-1.129.7-1.75.716-.62 1.717-.62.97 0 1.67.637.7.62.7 1.733 0 .89-.763 1.638-.764.748-1.654.748-.97 0-1.67-.716t-.7-1.67z" style="-inkscape-font-specification:'Arial Rounded MT Bold, '" fill="#fff" aria-label=":" font-size="32.569" font-family="Arial Rounded MT Bold" stroke-width="24.426"/></g></g></svg>